<!DOCTYPE svg PUBLIC "-//W3C//DTD SVG 20010904//EN" "http://www.w3.org/TR/2001/REC-SVG-20010904/DTD/svg10.dtd">
<svg version="1.0" xmlns="http://www.w3.org/2000/svg" width="968px" height="318px" viewBox="0 0 9680 3180" preserveAspectRatio="xMidYMid meet">
<g id="layer101" fill="#232221" stroke="none">
<path d="M4870 2927 c0 -7 4 -17 10 -23 5 -5 23 -48 39 -96 27 -76 39 -130 58 -248 5 -35 -18 -204 -36 -265 -20 -68 -80 -186 -144 -285 -79 -122 -203 -369 -242 -485 -19 -56 -29 -109 -32 -176 -5 -88 -3 -101 20 -150 14 -30 37 -66 51 -81 27 -28 34 -48 16 -48 -5 0 -21 -18 -35 -40 -43 -69 -28 -186 29 -224 42 -27 102 -38 146 -26 41 11 55 30 21 30 -35 0 -106 31 -123 53 -10 12 -18 38 -18 58 0 30 7 43 44 77 23 22 53 43 65 47 30 9 27 19 -22 64 -68 63 -87 109 -90 224 -2 53 -2 97 -1 97 2 0 10 -26 19 -57 46 -158 133 -261 258 -308 48 -18 49 -19 42 -54 -11 -63 -53 -171 -87 -228 -58 -96 -198 -205 -313 -243 -65 -21 -41 -33 58 -28 82 4 103 10 172 43 117 56 196 136 262 265 37 73 16 -1 -25 -89 -23 -48 -57 -97 -98 -141 -35 -37 -64 -71 -64 -75 0 -17 473 4 670 30 198 25 222 30 365 62 l80 18 2 485 c1 398 -1 498 -13 555 -9 39 -19 88 -23 110 -23 111 -100 284 -188 427 -100 160 -309 381 -473 499 -25 18 -47 35 -50 39 -6 8 -218 138 -283 174 -54 29 -67 32 -67 13z m344 -394 c55 -49 119 -106 141 -128 46 -46 170 -193 206 -245 64 -93 143 -243 160 -305 4 -16 17 -61 27 -100 39 -142 42 -184 42 -582 0 -364 -1 -392 -17 -397 -16 -5 -118 -21 -288 -46 -33 -5 -124 -12 -203 -15 l-143 -7 25 40 c36 58 48 113 51 243 3 95 6 120 21 138 21 24 36 28 28 6 -11 -29 22 -15 78 33 55 46 138 139 138 154 0 12 -38 10 -45 -2 -3 -5 -13 -10 -21 -10 -8 0 20 42 64 94 122 148 138 169 181 236 52 80 54 104 9 97 -18 -3 -52 -11 -75 -18 -34 -10 -44 -10 -57 0 -18 15 -10 37 36 89 32 37 31 60 -6 101 -50 56 -145 67 -226 26 -28 -14 -50 -29 -50 -33 0 -14 -61 -34 -86 -28 -23 6 -84 56 -84 69 0 3 9 3 21 0 15 -4 30 5 55 32 l34 38 115 -7 c135 -8 155 -2 155 49 0 44 -16 79 -58 133 -38 48 -52 53 -52 18 0 -20 -6 -24 -44 -28 -63 -7 -173 -62 -216 -107 -23 -24 -41 -56 -49 -86 -11 -42 -10 -52 9 -91 12 -25 43 -61 71 -83 l50 -40 -33 5 c-27 4 -41 -1 -79 -33 -59 -49 -136 -145 -162 -203 -15 -32 -21 -66 -21 -120 -1 -88 27 -155 99 -242 24 -29 42 -54 40 -56 -2 -2 -25 11 -50 28 -55 38 -123 138 -149 220 -52 159 -24 287 113 533 102 183 138 263 157 352 16 70 18 185 5 235 -6 19 -12 52 -16 74 -3 21 -8 42 -11 47 -15 24 18 1 110 -78z m136 -1057 c-12 -20 -24 -36 -26 -36 -9 0 8 45 24 63 25 28 26 11 2 -27z m-30 -56 c11 -11 20 -29 20 -40 0 -30 -18 -24 -22 8 -2 21 -9 28 -31 30 -33 4 -57 -13 -57 -39 0 -11 -4 -19 -10 -19 -23 0 13 58 45 70 30 13 33 12 55 -10z m-30 -51 c0 -5 -7 -9 -15 -9 -15 0 -20 12 -9 23 8 8 24 -1 24 -14z"/>
<path d="M2857 2916 c-46 -17 -73 -40 -95 -81 -14 -25 -17 -68 -17 -276 l0 -245 28 -43 c57 -87 195 -117 303 -67 28 13 60 35 72 50 26 33 42 107 42 191 l0 65 -100 0 -100 0 0 -94 c0 -72 -3 -95 -14 -99 -32 -13 -36 18 -34 249 3 221 4 229 23 229 18 0 20 -8 23 -87 l3 -88 101 0 101 0 -5 84 c-7 103 -28 150 -85 190 -37 26 -53 30 -125 33 -55 2 -96 -2 -121 -11z"/>
<path d="M8248 2920 c-46 -14 -85 -48 -107 -93 -19 -40 -21 -60 -21 -268 0 -250 7 -279 69 -332 98 -82 282 -54 341 53 24 44 25 49 25 260 0 118 -4 232 -8 252 -10 49 -51 96 -102 119 -42 20 -147 24 -197 9z m107 -361 c0 -215 -1 -234 -17 -237 -17 -3 -18 13 -18 231 0 128 3 237 7 241 24 23 28 -13 28 -235z"/>
<path d="M417 2913 c-4 -3 -7 -165 -7 -360 l0 -353 100 0 100 0 0 125 c0 118 1 125 20 125 19 0 20 -7 20 -125 l0 -125 95 0 95 0 0 360 0 361 -92 -3 -93 -3 -3 -147 c-2 -140 -4 -148 -22 -148 -19 0 -20 7 -20 150 l0 150 -93 0 c-52 0 -97 -3 -100 -7z"/>
<path d="M918 2573 c-2 -191 -1 -354 1 -360 2 -10 41 -13 150 -13 208 1 248 22 265 142 11 77 -3 149 -36 180 -26 24 -27 27 -10 32 38 13 47 51 47 210 l0 151 -87 3 -88 3 0 -135 c0 -74 -4 -146 -10 -160 -21 -57 -30 -23 -32 132 l-3 157 -97 3 -97 3 -3 -348z m232 -129 c15 -38 12 -80 -6 -98 -8 -9 -18 -16 -22 -16 -4 0 -7 32 -7 70 0 74 16 95 35 44z"/>
<path d="M1366 2912 c-3 -5 4 -69 14 -143 36 -263 60 -445 67 -507 l6 -63 141 3 141 3 22 145 c12 80 32 208 43 285 12 77 26 167 31 201 5 33 9 66 9 72 0 8 -30 12 -99 12 l-99 0 -7 -65 c-6 -62 -8 -65 -33 -65 -26 0 -27 3 -30 57 -2 31 -6 61 -8 65 -7 11 -191 10 -198 0z m250 -299 c-3 -21 -6 -72 -7 -113 -1 -62 -2 -69 -9 -40 -5 19 -12 70 -17 113 l-9 77 24 0 c23 0 24 -3 18 -37z"/>
<path d="M1867 2914 c-4 -4 -7 -167 -7 -362 l0 -354 168 3 c151 4 170 6 202 26 71 44 74 57 74 338 0 274 -3 292 -61 331 -24 16 -51 19 -198 22 -94 2 -173 0 -178 -4z m231 -353 c2 -213 0 -230 -30 -231 -5 0 -8 102 -8 226 0 209 1 225 18 222 15 -3 17 -23 20 -217z"/>
<path d="M2370 2560 l0 -360 160 0 160 0 0 75 0 75 -65 0 -65 0 0 60 0 60 60 0 60 0 0 75 0 75 -60 0 -60 0 0 70 0 70 70 0 71 0 -3 78 -3 77 -162 3 -163 2 0 -360z"/>
<path d="M6357 2913 c-4 -3 -7 -165 -7 -360 l0 -353 100 0 99 0 3 108 3 107 22 -80 c39 -146 29 -135 133 -135 49 0 90 3 90 8 0 4 -23 77 -51 162 l-51 155 21 70 c11 38 37 122 56 186 19 63 35 121 35 127 0 8 -30 12 -100 12 l-99 0 -10 -37 c-6 -21 -19 -74 -30 -118 l-19 -80 -1 118 -1 117 -93 0 c-52 0 -97 -3 -100 -7z"/>
<path d="M6840 2560 l0 -362 163 4 c135 2 168 6 190 21 38 25 55 55 67 118 16 82 4 138 -37 177 -22 20 -29 32 -19 32 8 0 25 15 38 33 22 30 23 41 23 182 l0 150 -92 3 -93 3 0 -138 c0 -150 -5 -183 -26 -183 -11 0 -14 33 -16 158 l-3 157 -97 3 -98 3 0 -361z m228 -102 c26 -26 7 -128 -24 -128 -2 0 -4 32 -4 70 0 70 5 81 28 58z"/>
<path d="M7293 2863 c16 -137 19 -165 37 -293 10 -74 24 -178 30 -230 19 -156 0 -140 161 -140 76 0 139 3 139 6 0 16 49 347 81 540 10 66 19 132 19 147 l0 28 -97 -3 -98 -3 -9 -62 c-8 -56 -12 -63 -32 -63 -20 0 -23 6 -29 65 l-7 65 -101 0 -100 0 6 -57z m253 -230 c-3 -10 -8 -56 -12 -103 -7 -75 -9 -80 -15 -45 -3 22 -10 68 -13 103 -7 62 -7 62 19 62 20 0 25 -4 21 -17z"/>
<path d="M7790 2560 l0 -360 100 0 100 0 0 280 0 280 55 0 56 0 -3 78 -3 77 -152 3 -153 3 0 -361z"/>
<path d="M8686 2908 c-4 -13 -13 -65 -55 -348 -12 -74 -28 -178 -36 -231 -22 -143 -31 -130 88 -127 l102 3 17 135 c9 74 17 162 19 195 1 45 5 23 16 -85 7 -80 16 -169 19 -197 l5 -53 104 0 104 0 -5 53 c-3 28 -12 95 -20 147 -8 52 -18 122 -21 155 -3 33 -16 128 -28 210 l-21 150 -142 3 c-109 2 -143 0 -146 -10z"/>
<path d="M9099 2575 c-1 -190 -2 -351 -3 -357 -1 -10 39 -14 162 -16 l162 -2 0 75 0 75 -59 0 -59 0 -4 60 -3 60 58 0 57 0 0 75 0 75 -57 0 -58 0 0 67 0 68 65 5 65 5 0 75 0 75 -162 3 -163 2 -1 -345z"/>
<path d="M4793 2703 c-7 -110 -43 -277 -82 -385 -24 -66 -34 -84 -126 -233 -170 -274 -204 -354 -212 -496 -4 -73 -1 -109 12 -154 18 -64 71 -175 83 -175 4 0 5 67 4 148 -5 215 16 280 181 557 50 83 105 182 124 220 19 39 38 77 43 87 5 9 16 56 26 105 18 98 14 186 -13 284 -15 56 -37 79 -40 42z"/>
<path d="M4651 2624 c-61 -142 -175 -266 -397 -434 -148 -113 -250 -218 -320 -330 -56 -91 -85 -172 -91 -261 -18 -253 123 -433 389 -498 86 -21 288 -30 288 -13 0 4 -23 33 -50 66 -135 156 -200 304 -200 451 0 128 33 209 157 390 192 277 263 442 263 607 0 43 -3 78 -7 78 -5 0 -19 -26 -32 -56z m-354 -587 c-64 -78 -113 -173 -142 -271 -37 -130 -31 -219 24 -355 23 -57 94 -171 130 -208 31 -33 26 -35 -30 -13 -161 64 -258 199 -264 368 -1 45 2 104 6 130 13 66 62 166 111 224 41 49 185 177 201 178 4 0 -12 -24 -36 -53z"/>
<path d="M4529 2603 c-76 -71 -154 -127 -228 -164 -110 -56 -235 -136 -290 -185 -143 -129 -229 -299 -266 -526 -9 -54 10 -48 40 15 63 130 139 239 218 314 45 42 144 124 312 256 70 54 179 171 233 250 28 41 52 78 52 81 0 16 -24 2 -71 -41z"/>
<path d="M7437 2178 c4 -7 23 -37 41 -65 l34 -53 79 0 c43 0 79 4 79 9 0 5 -30 34 -66 65 -62 53 -68 56 -120 56 -42 0 -53 -3 -47 -12z"/>
<path d="M9180 2183 c0 -5 15 -33 33 -63 l33 -55 82 -3 c48 -2 82 1 82 7 0 5 -30 35 -67 65 -61 51 -72 56 -115 56 -26 0 -48 -3 -48 -7z"/>
<path d="M3720 1458 c1 -61 19 -165 48 -280 19 -75 76 -173 132 -229 80 -81 171 -119 286 -119 117 0 207 40 287 130 69 77 66 84 -40 76 -155 -11 -305 19 -416 86 -98 58 -209 195 -257 318 -22 55 -40 64 -40 18z"/>
<path d="M4385 797 c-67 -29 -77 -31 -205 -31 -116 -1 -145 3 -203 23 -38 13 -71 20 -75 17 -3 -4 -2 -10 4 -14 5 -4 35 -26 65 -49 84 -65 141 -86 229 -87 60 0 85 4 125 24 53 26 145 112 145 136 0 18 -2 18 -85 -19z"/>
<path d="M4545 721 c-9 -16 -116 -75 -170 -94 -34 -13 -90 -20 -172 -24 -68 -3 -123 -8 -123 -12 0 -3 21 -16 48 -27 122 -55 214 -57 309 -8 46 24 67 44 101 93 23 35 42 67 42 72 0 12 -27 12 -35 0z"/>
</g>
<g id="layer102" fill="#4c3d2c" stroke="none">
<path d="M4870 2935 c0 -3 8 -22 19 -43 22 -44 67 -183 74 -232 3 -19 9 -56 12 -82 8 -52 -9 -193 -32 -278 -24 -84 -63 -164 -145 -295 -98 -156 -192 -344 -235 -470 -63 -185 -54 -316 28 -409 l38 -43 -25 -24 c-84 -78 -70 -209 26 -260 37 -20 124 -25 150 -9 16 10 20 8 -59 30 -121 33 -123 147 -5 216 l45 26 -45 44 c-70 67 -88 112 -94 229 -2 55 -1 97 4 92 4 -4 18 -39 30 -77 43 -138 137 -244 249 -284 39 -13 40 -15 38 -57 -8 -159 -150 -351 -323 -436 -47 -23 -92 -44 -100 -46 -12 -4 -11 -6 4 -13 37 -15 191 12 262 47 96 45 190 142 244 250 23 46 39 76 36 66 -4 -11 -9 -31 -12 -45 -23 -94 -74 -180 -168 -281 l-41 -43 210 6 c327 11 703 55 880 104 l30 8 0 505 c0 493 -1 506 -23 593 -81 314 -202 524 -453 787 -109 114 -353 292 -531 388 -78 41 -88 46 -88 36z m397 -447 c296 -269 459 -536 508 -835 13 -81 15 -167 13 -487 l-3 -389 -62 -13 c-34 -7 -83 -15 -110 -18 -26 -4 -79 -11 -118 -16 -114 -16 -355 -24 -355 -12 0 6 4 14 10 17 11 7 34 55 50 109 7 21 13 90 15 152 2 94 5 118 20 134 22 24 32 25 37 4 2 -13 15 -6 59 27 56 44 85 75 129 138 l24 34 -22 -6 c-12 -4 -32 -10 -44 -14 -15 -4 10 32 79 118 129 161 193 255 193 286 0 28 7 27 -91 2 -85 -22 -102 6 -44 70 55 60 43 111 -35 151 -71 36 -130 26 -225 -38 -59 -40 -101 -39 -147 4 -33 32 -36 48 -9 41 14 -3 33 8 61 35 45 44 38 44 208 22 43 -5 56 -3 73 12 31 28 20 84 -29 153 -43 61 -55 68 -60 35 -2 -17 -12 -23 -46 -28 -51 -8 -170 -64 -207 -98 -63 -56 -77 -139 -34 -202 29 -43 75 -85 93 -86 6 0 12 -5 12 -11 0 -6 -11 -8 -28 -4 -24 5 -37 -1 -73 -31 -135 -111 -210 -247 -195 -352 9 -66 55 -159 109 -218 26 -29 47 -55 47 -58 0 -17 -83 39 -120 81 -52 60 -83 119 -104 204 -20 82 -20 139 -1 226 22 94 38 132 105 249 106 183 153 287 175 379 12 53 6 237 -10 298 -8 32 -15 63 -15 68 0 13 49 -26 167 -133z m84 -1017 c-15 -21 -21 -42 -19 -72 2 -25 -2 -43 -9 -46 -7 -3 -9 3 -6 16 7 28 -13 51 -44 51 -18 0 -28 -8 -36 -30 -9 -25 -17 -30 -42 -29 -30 2 -30 2 -2 6 18 3 27 10 27 22 0 25 20 40 60 44 24 3 36 11 42 28 12 31 41 64 46 50 2 -6 -6 -24 -17 -40z m-58 -100 c3 -14 0 -17 -14 -14 -22 6 -26 33 -5 33 7 0 16 -8 19 -19z"/>
<path d="M2866 2915 c-52 -18 -94 -61 -109 -110 -8 -26 -12 -114 -12 -260 l0 -220 27 -47 c38 -64 90 -88 191 -88 86 0 120 10 161 48 41 39 57 83 63 183 l6 89 -102 0 -101 0 0 -94 c0 -96 -5 -111 -34 -100 -15 6 -16 33 -14 243 3 228 4 236 23 236 18 0 20 -8 23 -87 l3 -88 101 0 101 0 -7 88 c-10 116 -32 158 -105 195 -62 31 -148 36 -215 12z"/>
<path d="M8240 2914 c-43 -19 -77 -50 -97 -89 -20 -38 -30 -356 -15 -462 18 -126 74 -173 206 -173 88 0 120 10 163 52 53 51 58 80 57 323 0 206 -1 223 -22 262 -36 69 -103 103 -201 103 -31 -1 -72 -8 -91 -16z m118 -353 c2 -234 -2 -271 -30 -243 -9 9 -14 68 -16 205 -4 222 1 280 26 275 15 -3 17 -27 20 -237z"/>
<path d="M920 2554 l0 -356 159 4 c142 3 163 5 188 24 47 34 68 88 67 174 -1 85 -13 116 -52 132 -27 10 -27 10 -5 18 47 19 57 52 61 211 l4 149 -91 0 -91 0 0 -124 c0 -148 -6 -183 -31 -189 -18 -5 -19 3 -19 154 l0 159 -95 0 -95 0 0 -356z m234 -106 c15 -57 0 -118 -29 -118 -12 0 -15 15 -15 70 0 62 2 70 19 70 11 0 21 -9 25 -22z"/>
<path d="M1375 2843 c4 -38 13 -109 20 -158 8 -50 19 -133 25 -185 6 -52 18 -141 27 -197 l16 -103 133 0 c118 0 133 2 138 18 3 9 14 80 26 157 45 315 70 481 76 508 l6 27 -100 0 -100 0 -7 -60 c-7 -58 -8 -60 -36 -60 -27 0 -29 3 -29 38 0 81 -1 82 -107 82 l-95 0 7 -67z m241 -303 c-5 -61 -10 -109 -12 -107 -2 2 -8 39 -14 83 -6 43 -12 91 -15 107 -4 24 -1 27 23 27 l27 0 -9 -110z"/>
<path d="M1870 2554 l0 -356 158 4 c172 3 202 12 246 71 20 27 21 42 24 275 4 370 10 362 -260 362 l-168 0 0 -356z m232 212 c13 -19 9 -411 -4 -424 -35 -35 -38 -18 -38 218 0 214 1 229 18 223 9 -4 20 -11 24 -17z"/>
<path d="M6350 2555 l0 -355 100 0 100 0 1 113 c0 61 2 108 4 102 2 -5 18 -56 35 -112 l31 -103 89 0 c50 0 90 1 90 3 0 1 -22 70 -50 152 -27 83 -50 158 -50 167 0 15 91 332 107 376 4 9 -19 12 -96 12 -96 0 -101 -1 -106 -22 -3 -13 -16 -66 -29 -118 l-24 -95 -1 118 -1 117 -100 0 -100 0 0 -355z"/>
<path d="M6840 2554 l0 -356 158 4 c186 4 212 13 244 85 16 36 19 61 16 126 -3 75 -5 82 -34 105 l-30 24 33 33 33 33 0 151 0 151 -90 0 -90 0 0 -150 c0 -139 -1 -150 -20 -160 -20 -10 -20 -8 -20 150 l0 160 -100 0 -100 0 0 -356z m238 -142 c3 -51 -8 -82 -29 -82 -5 0 -9 32 -9 71 0 62 2 70 18 67 13 -2 18 -15 20 -56z"/>
<path d="M7290 2894 c0 -8 7 -61 15 -117 27 -195 72 -531 75 -575 0 -1 62 -1 137 0 l138 3 7 45 c13 85 79 527 92 618 l6 42 -100 0 -100 0 0 -60 c0 -59 0 -60 -29 -60 -24 0 -29 5 -35 31 -3 17 -6 44 -6 60 l0 29 -100 0 c-84 0 -100 -2 -100 -16z m256 -266 c-3 -13 -9 -68 -13 -123 -8 -111 -15 -96 -28 63 l-7 82 27 0 c23 0 26 -3 21 -22z"/>
<path d="M7790 2555 l0 -356 98 3 97 3 3 277 2 277 53 3 52 3 3 73 3 72 -156 0 -155 0 0 -355z"/>
<path d="M8685 2898 c-4 -13 -30 -181 -61 -397 -8 -57 -21 -145 -29 -195 -8 -50 -15 -94 -15 -98 0 -5 45 -8 99 -8 77 0 100 3 104 14 3 8 14 104 24 213 l17 198 13 -135 c7 -74 16 -169 20 -210 l8 -75 104 -3 c85 -2 102 0 98 11 -3 8 -8 40 -12 73 -3 32 -15 122 -25 199 -10 77 -26 196 -35 265 -9 69 -19 133 -21 143 -5 15 -21 17 -145 17 -103 0 -141 -3 -144 -12z"/>
<path d="M9100 2555 l0 -355 153 0 c85 0 156 2 158 4 2 2 3 36 1 75 l-4 71 -59 0 -59 0 0 60 0 59 58 3 57 3 0 70 0 70 -57 3 -58 3 0 69 0 70 65 0 65 0 0 75 0 75 -160 0 -160 0 0 -355z"/>
<path d="M4797 2693 c-3 -10 -8 -45 -12 -78 -9 -78 -41 -216 -65 -283 -29 -77 -53 -121 -150 -277 -93 -149 -160 -282 -181 -355 -7 -25 -13 -88 -13 -140 -1 -80 4 -107 27 -170 26 -72 87 -166 72 -113 -4 13 -7 85 -7 160 -1 125 2 145 26 218 30 87 96 220 151 303 19 30 35 56 35 58 0 2 16 29 36 61 44 68 85 155 116 249 29 88 31 230 4 316 -19 62 -32 79 -39 51z"/>
<path d="M4655 2627 c-67 -146 -176 -267 -385 -429 -343 -264 -475 -502 -416 -748 48 -199 207 -327 449 -359 85 -12 217 -15 217 -5 0 3 -21 29 -47 58 -85 94 -155 217 -188 331 -24 80 -17 228 14 308 13 33 75 136 138 230 180 268 238 400 250 566 3 52 2 91 -3 91 -5 0 -18 -19 -29 -43z m-367 -609 c-61 -82 -85 -126 -120 -213 -20 -52 -23 -78 -23 -185 0 -113 3 -131 26 -188 33 -77 83 -161 128 -213 18 -22 32 -42 30 -44 -8 -7 -96 29 -135 56 -64 44 -131 124 -155 187 -26 69 -36 197 -20 272 17 80 66 172 124 236 52 58 189 176 195 169 2 -2 -21 -36 -50 -77z"/>
<path d="M4535 2603 c-73 -65 -144 -118 -195 -146 -25 -13 -76 -41 -115 -62 -148 -80 -231 -145 -300 -235 -80 -105 -120 -188 -154 -325 -37 -145 -34 -185 8 -97 93 193 180 295 421 486 177 142 304 270 359 360 19 31 32 58 30 60 -2 2 -26 -16 -54 -41z"/>
<path d="M7440 2185 c0 -3 16 -30 35 -60 l35 -55 64 0 c35 0 71 -3 80 -6 34 -13 13 15 -53 69 -62 51 -74 57 -115 57 -25 0 -46 -2 -46 -5z"/>
<path d="M9180 2184 c0 -3 15 -30 33 -59 l32 -53 75 -4 c41 -3 78 -2 82 1 4 3 -24 32 -61 64 -62 51 -73 57 -115 57 -25 0 -46 -3 -46 -6z"/>
<path d="M3730 1435 c0 -117 35 -265 88 -369 32 -65 125 -162 182 -191 132 -67 317 -51 423 36 30 25 97 108 97 121 0 2 -69 3 -152 3 -140 1 -160 3 -231 28 -158 55 -274 163 -357 332 l-50 100 0 -60z"/>
<path d="M4423 809 c-61 -28 -190 -59 -248 -59 -42 0 -189 31 -260 55 -36 12 68 -74 125 -103 84 -44 158 -58 217 -42 26 7 66 23 89 36 41 23 124 106 124 124 0 5 -1 10 -2 9 -2 0 -22 -9 -45 -20z"/>
<path d="M4540 712 c-38 -29 -151 -89 -185 -97 -16 -4 -39 -9 -50 -12 -11 -2 -65 -7 -119 -10 -89 -5 -96 -7 -75 -19 42 -24 155 -54 200 -54 51 0 140 38 183 78 65 61 105 161 46 114z"/>
</g>
<g id="layer103" fill="#515151" stroke="none">
<path d="M4870 2935 c0 -3 9 -23 19 -43 66 -128 99 -311 82 -451 -20 -160 -59 -259 -170 -431 -77 -120 -202 -365 -231 -455 -12 -38 -27 -81 -32 -94 -5 -13 -12 -59 -15 -101 -7 -98 14 -173 68 -234 l38 -43 -25 -24 c-84 -78 -70 -209 26 -260 36 -20 124 -26 149 -10 17 11 6 17 -46 26 -62 10 -103 51 -103 104 0 35 6 47 40 81 23 23 53 45 67 51 l26 10 -46 43 c-56 54 -77 93 -92 171 -11 57 -5 177 7 145 3 -8 16 -44 28 -80 22 -63 63 -138 98 -177 32 -35 105 -82 152 -98 l47 -16 -12 -53 c-39 -166 -108 -278 -225 -363 -49 -35 -159 -94 -200 -106 -12 -4 -11 -6 4 -13 38 -15 188 12 262 48 99 48 190 141 243 249 45 93 45 65 -1 -51 -29 -74 -64 -125 -142 -209 l-41 -43 205 6 c341 11 545 34 833 93 63 13 78 20 83 37 2 12 3 239 1 506 -3 519 -2 501 -59 690 -34 115 -101 258 -170 365 -168 261 -461 522 -780 693 -78 42 -88 47 -88 37z m398 -448 c299 -272 457 -534 506 -833 14 -82 16 -165 14 -488 l-3 -389 -65 -14 c-253 -52 -639 -71 -570 -28 11 7 34 55 50 109 7 21 13 90 15 152 2 94 5 118 20 134 22 24 35 26 35 5 0 -12 4 -13 19 -6 35 19 132 113 163 159 29 41 29 45 10 39 -73 -23 -69 -24 -42 10 14 17 59 73 101 124 106 132 169 227 169 256 0 28 7 27 -91 2 -85 -22 -101 3 -44 71 19 23 35 52 35 64 0 73 -133 131 -217 94 -15 -7 -50 -27 -77 -45 -65 -44 -109 -42 -155 8 -26 28 -27 41 -2 37 10 -2 36 13 61 36 47 42 41 41 208 20 43 -5 56 -3 73 12 31 28 20 84 -29 153 -43 61 -55 68 -60 35 -2 -17 -12 -23 -46 -28 -57 -9 -173 -65 -210 -102 -35 -35 -56 -82 -56 -127 0 -43 43 -109 91 -138 46 -28 50 -43 11 -34 -24 5 -37 -1 -76 -33 -72 -60 -144 -150 -168 -212 -45 -117 -14 -247 85 -356 26 -29 47 -55 47 -58 0 -16 -80 37 -117 77 -84 91 -130 228 -119 357 8 108 35 184 114 322 111 195 157 295 177 382 12 53 6 239 -10 299 -8 32 -15 63 -15 68 0 14 55 -30 168 -134z m102 -978 c0 -6 -9 -24 -21 -40 -16 -23 -19 -38 -14 -68 7 -45 -2 -55 -45 -46 -30 7 -42 35 -15 35 8 0 15 -7 15 -15 0 -8 7 -15 15 -15 18 0 20 31 3 48 -23 23 -59 14 -71 -18 -9 -25 -17 -30 -42 -29 -30 2 -30 2 -2 6 18 3 27 10 27 22 0 25 20 40 60 45 27 2 36 9 44 32 14 42 46 73 46 43z"/>
<path d="M2866 2915 c-52 -18 -94 -61 -109 -110 -8 -26 -12 -114 -12 -260 l0 -220 27 -47 c38 -64 90 -88 191 -88 86 0 120 10 161 48 41 39 53 75 61 180 l7 92 -101 0 -100 0 -3 -97 c-3 -90 -5 -98 -23 -98 -19 0 -20 7 -20 240 0 233 1 240 20 240 18 0 20 -8 23 -88 l3 -88 97 3 97 3 -3 80 c-4 110 -29 160 -101 197 -61 32 -147 37 -215 13z"/>
<path d="M8247 2915 c-45 -16 -83 -48 -104 -90 -20 -38 -30 -356 -15 -462 18 -126 74 -173 206 -173 88 0 120 10 163 52 52 51 57 80 57 323 0 206 -1 223 -22 262 -35 68 -103 103 -196 103 -28 -1 -68 -7 -89 -15z m108 -359 c0 -182 -3 -240 -12 -243 -25 -9 -33 52 -33 245 0 214 4 245 29 240 14 -3 16 -30 16 -242z"/>
<path d="M410 2555 l0 -355 100 0 100 0 0 125 c0 118 1 125 20 125 19 0 20 -7 20 -125 l0 -125 95 0 95 0 0 355 0 355 -95 0 -95 0 0 -145 c0 -138 -1 -145 -20 -145 -19 0 -20 7 -20 145 l0 145 -100 0 -100 0 0 -355z"/>
<path d="M920 2554 l0 -356 158 3 c169 4 193 11 227 62 27 42 38 127 25 190 -10 48 -16 60 -43 73 l-31 16 27 14 c44 23 50 49 55 207 l4 147 -91 0 -91 0 0 -132 c0 -151 -4 -174 -31 -181 -18 -5 -19 2 -19 154 l0 159 -95 0 -95 0 0 -356z m234 -106 c15 -57 0 -118 -29 -118 -12 0 -15 15 -15 70 0 62 2 70 19 70 11 0 21 -9 25 -22z"/>
<path d="M1375 2848 c4 -35 15 -126 26 -203 11 -77 21 -160 24 -185 3 -25 13 -93 22 -152 l15 -108 134 0 c152 0 136 -12 154 115 6 44 19 136 30 205 10 69 26 175 35 235 9 61 19 120 22 133 5 22 4 22 -95 22 l-100 0 -7 -66 c-7 -63 -7 -65 -33 -62 -22 2 -28 9 -30 33 -1 17 -5 45 -8 63 l-5 32 -95 0 -95 0 6 -62z m241 -310 c-10 -120 -19 -120 -30 2 -4 41 -9 83 -12 93 -4 13 1 17 23 17 l28 0 -9 -112z"/>
<path d="M1870 2554 l0 -356 158 4 c172 3 202 12 246 71 20 27 21 40 21 295 0 242 -2 270 -18 294 -28 41 -65 48 -243 48 l-164 0 0 -356z m232 212 c13 -19 9 -411 -4 -424 -35 -35 -38 -18 -38 218 0 214 1 229 18 223 9 -4 20 -11 24 -17z"/>
<path d="M2370 2555 l0 -356 158 3 157 3 3 73 3 72 -66 0 -65 0 0 60 0 59 58 3 57 3 0 70 0 70 -57 3 -58 3 0 69 0 69 68 3 67 3 3 73 3 72 -166 0 -165 0 0 -355z"/>
<path d="M6352 2558 l3 -353 98 -3 97 -3 0 113 c1 126 0 127 49 -39 l22 -73 89 0 c50 0 90 1 90 3 0 1 -24 75 -54 163 -40 121 -51 165 -44 183 4 13 28 91 52 175 25 83 48 159 51 169 7 15 -2 17 -94 17 -96 0 -101 -1 -106 -22 -3 -13 -16 -66 -29 -118 l-24 -95 -1 118 -1 117 -100 0 -100 0 2 -352z"/>
<path d="M6840 2554 l0 -356 158 4 c128 3 163 7 190 21 47 26 72 84 72 172 0 87 -16 120 -68 141 -1 1 13 17 33 37 l35 35 0 151 0 151 -90 0 -90 0 0 -150 c0 -139 -1 -150 -20 -160 -20 -10 -20 -8 -20 150 l0 160 -100 0 -100 0 0 -356z m235 -154 c0 -54 -3 -65 -17 -68 -16 -3 -18 5 -18 68 0 63 2 71 18 68 14 -3 17 -14 17 -68z"/>
<path d="M7290 2894 c0 -8 7 -61 15 -117 19 -133 54 -400 61 -457 2 -25 7 -62 10 -83 l6 -38 136 3 137 3 11 75 c6 41 21 138 32 215 12 77 28 187 37 245 8 58 17 120 20 138 l6 32 -100 0 -100 0 -3 -62 c-3 -60 -4 -63 -29 -66 -23 -3 -27 1 -32 35 -4 21 -7 50 -7 66 l0 27 -100 0 c-84 0 -100 -2 -100 -16z m256 -266 c-3 -13 -9 -68 -13 -123 l-7 -100 -12 75 c-7 41 -13 96 -13 123 -1 44 1 47 25 47 22 0 25 -3 20 -22z"/>
<path d="M7790 2555 l0 -356 98 3 97 3 0 275 0 275 55 5 55 5 3 73 3 72 -156 0 -155 0 0 -355z"/>
<path d="M8685 2898 c-4 -12 -21 -127 -60 -403 -8 -55 -22 -140 -30 -190 -8 -49 -15 -93 -15 -97 0 -14 197 -9 203 5 2 7 13 102 23 212 l19 200 12 -135 c8 -74 17 -169 21 -210 l7 -75 103 -3 c96 -2 103 -1 98 15 -3 10 -10 59 -16 108 -6 50 -17 137 -25 195 -8 58 -21 161 -30 230 -9 69 -19 133 -21 143 -5 15 -21 17 -145 17 -103 0 -141 -3 -144 -12z"/>
<path d="M9100 2555 l0 -355 155 0 155 0 0 75 0 75 -60 0 -60 0 0 60 0 59 58 3 57 3 0 70 0 70 -57 3 -58 3 0 69 0 70 65 0 65 0 0 75 0 75 -160 0 -160 0 0 -355z"/>
<path d="M4661 2638 c-58 -139 -185 -281 -391 -440 -248 -191 -367 -342 -415 -528 -27 -104 -13 -226 37 -324 70 -137 215 -228 413 -256 77 -11 215 -13 215 -4 0 3 -23 31 -51 62 -72 81 -137 190 -170 285 -23 65 -29 99 -29 168 0 148 23 200 211 481 136 202 195 343 206 497 6 95 -2 115 -26 59z m-374 -620 c-186 -252 -198 -497 -34 -738 17 -25 41 -56 54 -70 43 -47 24 -49 -65 -7 -56 26 -146 108 -177 161 -98 170 -66 404 78 562 52 58 189 176 195 169 2 -2 -21 -36 -51 -77z"/>
<path d="M4530 2599 c-54 -49 -173 -139 -183 -139 -9 0 -214 -117 -263 -150 -168 -115 -290 -317 -330 -550 -2 -14 -6 -35 -9 -47 -10 -42 10 -24 39 35 98 201 153 264 416 476 150 122 257 222 318 301 31 40 75 115 71 120 -2 2 -29 -19 -59 -46z"/>
<path d="M7440 2185 c0 -3 16 -30 35 -60 l35 -55 82 0 c48 0 78 4 73 9 -6 5 -38 32 -72 60 -55 45 -68 51 -108 51 -25 0 -45 -2 -45 -5z"/>
<path d="M9180 2182 c0 -4 16 -30 35 -59 l34 -51 77 -4 c42 -2 77 -1 79 2 2 3 -27 31 -65 63 -61 51 -72 57 -114 57 -25 0 -46 -3 -46 -8z"/>
<path d="M3730 1440 c1 -122 35 -270 88 -374 32 -65 125 -162 182 -191 56 -28 169 -49 218 -41 79 13 98 18 137 35 52 23 99 63 135 116 17 24 30 45 30 47 0 2 -69 3 -152 3 -143 0 -158 2 -232 28 -160 58 -274 164 -357 332 l-49 100 0 -55z"/>
<path d="M4411 803 c-57 -24 -183 -53 -236 -53 -42 0 -193 32 -260 55 -19 7 8 -23 62 -66 31 -25 124 -66 181 -80 47 -12 59 -11 121 9 50 16 84 36 121 69 83 74 87 100 11 66z"/>
</g>
<g id="layer104" fill="#6f6f6f" stroke="none">
<path d="M4906 2855 c122 -303 89 -551 -113 -862 -83 -126 -195 -354 -234 -474 -28 -88 -34 -118 -33 -194 1 -103 14 -141 69 -198 l37 -38 -32 -35 c-38 -44 -50 -73 -50 -122 0 -85 71 -152 160 -152 25 0 52 4 60 10 17 10 15 11 -57 30 -54 14 -83 50 -83 103 0 34 6 46 41 79 23 22 53 44 67 49 l26 10 -43 36 c-73 63 -114 175 -103 286 5 56 17 61 26 10 8 -52 67 -172 106 -217 42 -47 104 -89 155 -106 22 -7 43 -14 47 -16 10 -6 -19 -122 -48 -192 -31 -74 -98 -163 -157 -210 -55 -44 -143 -97 -189 -113 -50 -17 -48 -29 5 -29 67 0 170 26 233 58 108 55 167 119 238 258 40 79 45 74 16 -17 -29 -88 -64 -147 -140 -230 l-64 -72 199 7 c340 12 473 26 772 83 l141 27 7 101 c4 56 5 276 2 491 -4 339 -7 401 -25 484 -88 420 -343 772 -767 1062 -93 64 -285 178 -299 178 -3 0 11 -38 30 -85z m268 -282 c103 -84 255 -236 327 -328 133 -169 212 -323 258 -505 29 -114 32 -174 34 -583 l2 -378 -35 -8 c-37 -10 -123 -24 -255 -41 -108 -15 -356 -30 -367 -24 -5 4 -2 14 6 23 46 51 84 224 72 331 -6 48 -4 58 14 73 25 21 40 22 40 2 0 -12 4 -14 20 -5 33 18 138 120 161 156 22 36 20 55 -3 37 -19 -15 -48 -24 -48 -15 0 4 30 44 66 87 76 91 195 249 212 282 16 30 15 63 -2 63 -7 0 -30 -7 -51 -16 -47 -19 -99 -15 -103 9 -2 10 12 36 33 59 31 34 36 45 31 72 -8 39 -45 72 -98 86 -65 18 -136 -2 -201 -56 -16 -13 -40 -24 -53 -24 -39 0 -88 25 -107 54 l-17 26 30 0 c20 0 34 7 45 23 27 41 58 49 176 41 117 -7 139 -1 139 40 0 28 -42 114 -74 151 l-25 30 -1 -26 c0 -28 -19 -39 -68 -39 -13 0 -56 -15 -95 -33 -73 -34 -145 -100 -149 -135 -5 -62 -3 -90 8 -113 12 -24 69 -79 110 -107 17 -11 15 -12 -17 -7 -31 5 -43 0 -83 -33 -63 -52 -132 -135 -159 -191 -34 -71 -32 -197 5 -271 15 -30 48 -77 73 -105 24 -27 45 -53 45 -57 1 -34 -109 54 -162 130 -53 76 -71 144 -72 267 -1 138 16 192 115 365 154 271 179 341 179 501 0 77 -6 130 -19 179 -11 39 -17 70 -14 70 3 0 38 -26 77 -57z m180 -1098 c-22 -38 -24 -50 -16 -74 7 -20 7 -32 -1 -40 -12 -12 -95 -13 -142 -1 l-30 8 28 1 c19 1 27 6 27 20 0 25 20 40 60 45 27 2 36 9 43 32 12 37 26 54 44 54 10 0 7 -12 -13 -45z"/>
<path d="M5247 1402 c-21 -23 -22 -42 -2 -42 8 0 15 7 15 15 0 8 7 15 15 15 8 0 15 -7 15 -15 0 -8 7 -15 15 -15 18 0 20 31 3 48 -17 17 -42 15 -61 -6z"/>
<path d="M2865 2914 c-53 -19 -93 -60 -107 -109 -14 -46 -18 -418 -5 -477 10 -49 51 -96 102 -119 54 -25 166 -25 220 0 82 38 105 83 105 212 l0 89 -95 0 -94 0 -3 -97 c-3 -90 -5 -98 -23 -98 -29 0 -33 29 -34 236 -1 221 3 251 33 247 19 -3 21 -10 24 -90 l3 -88 94 0 95 0 0 79 c0 90 -10 124 -48 165 -58 62 -174 84 -267 50z"/>
<path d="M8257 2920 c-44 -13 -92 -55 -112 -96 -21 -44 -32 -265 -20 -416 6 -80 11 -104 33 -138 36 -55 90 -80 175 -80 103 0 161 30 198 102 17 33 19 61 19 266 0 220 -1 231 -23 273 -43 80 -165 120 -270 89z m103 -366 c0 -235 -4 -260 -35 -234 -12 10 -15 53 -15 239 0 232 5 266 37 240 10 -9 13 -63 13 -245z"/>
<path d="M412 2558 l3 -353 95 0 95 0 3 123 c2 113 4 122 22 122 18 0 20 -9 22 -122 l3 -123 93 -3 92 -3 0 356 0 355 -95 0 -95 0 0 -149 c0 -144 -1 -149 -20 -144 -19 5 -20 14 -20 149 l0 144 -100 0 -100 0 2 -352z"/>
<path d="M920 2554 l0 -356 153 3 c175 5 208 16 241 84 41 82 20 228 -35 242 -24 7 -24 20 0 28 44 14 55 51 59 208 l4 147 -90 0 -91 0 -3 -150 c-3 -149 -8 -169 -40 -170 -5 0 -8 72 -8 160 l0 160 -95 0 -95 0 0 -356z m232 -98 c12 -18 9 -101 -4 -114 -29 -29 -38 -13 -38 63 0 67 2 74 18 68 9 -4 20 -11 24 -17z"/>
<path d="M1370 2903 c0 -14 77 -608 87 -665 l6 -38 132 0 133 0 6 28 c3 15 15 90 26 167 31 217 59 405 69 463 l8 52 -98 0 -99 0 0 -34 c0 -18 -3 -48 -6 -65 -6 -26 -11 -31 -35 -31 -27 0 -29 2 -29 43 0 87 0 87 -106 87 -52 0 -94 -3 -94 -7z m257 -281 c-3 -15 -9 -67 -13 -114 -4 -48 -10 -85 -14 -83 -4 2 -10 44 -14 92 -4 49 -10 98 -13 111 -5 19 -1 22 27 22 30 0 32 -2 27 -28z"/>
<path d="M1870 2554 l0 -356 158 4 c173 4 202 13 246 71 20 27 21 40 21 290 0 286 -1 293 -58 327 -28 18 -51 20 -199 20 l-168 0 0 -356z m224 220 c14 -13 16 -47 16 -214 0 -109 -3 -205 -6 -214 -3 -9 -15 -16 -25 -16 -18 0 -19 11 -19 230 0 135 4 230 9 230 5 0 17 -7 25 -16z"/>
<path d="M2370 2555 l0 -355 155 0 155 0 0 75 0 75 -60 0 -60 0 0 65 0 65 60 0 60 0 0 64 c0 72 -4 76 -76 76 l-44 0 0 76 0 76 65 -6 65 -6 0 75 0 75 -160 0 -160 0 0 -355z"/>
<path d="M6352 2558 l3 -353 95 0 95 0 5 114 5 115 13 -50 c7 -27 22 -79 33 -116 l20 -68 83 0 c45 0 85 2 88 5 3 3 -18 76 -46 162 l-52 157 48 160 c27 89 51 176 55 194 l6 32 -95 0 -95 0 -31 -122 -31 -123 0 123 -1 122 -100 0 -100 0 2 -352z"/>
<path d="M6842 2558 l3 -353 157 0 c142 0 159 2 184 21 58 43 68 67 68 162 0 97 -11 128 -52 144 -25 9 -26 11 -7 18 11 4 29 17 40 29 17 20 20 41 23 177 l4 154 -91 0 -91 0 0 -150 c0 -138 -2 -150 -19 -160 -11 -5 -22 -6 -25 -2 -3 5 -4 77 -3 160 l2 152 -98 0 -97 0 2 -352z m236 -161 c-3 -53 -6 -62 -23 -65 -19 -3 -21 3 -22 65 -1 80 2 87 28 72 17 -9 20 -19 17 -72z"/>
<path d="M7290 2901 c0 -5 9 -69 19 -143 10 -73 29 -209 41 -303 12 -93 25 -188 29 -210 l7 -40 134 0 135 0 6 50 c4 28 19 129 33 225 15 96 33 222 41 280 8 58 17 115 20 128 5 22 4 22 -89 22 -106 0 -106 0 -106 -88 0 -43 0 -43 -32 -40 -33 3 -33 3 -36 66 l-3 62 -99 0 c-55 0 -100 -4 -100 -9z m257 -273 c-3 -13 -9 -68 -13 -123 -7 -92 -8 -96 -16 -55 -4 25 -11 80 -16 123 l-8 77 29 0 c25 0 28 -3 24 -22z"/>
<path d="M7792 2558 l3 -353 92 -3 93 -3 2 283 c2 218 6 283 16 284 6 1 31 2 55 3 l42 1 -3 70 -4 70 -149 0 -149 0 2 -352z"/>
<path d="M8685 2898 c-2 -7 -8 -49 -14 -93 -9 -71 -36 -252 -75 -505 -7 -47 -11 -88 -9 -92 2 -5 46 -8 98 -8 l93 0 6 28 c3 15 10 81 16 147 6 66 14 149 18 185 l8 65 8 -85 c10 -123 26 -270 32 -307 l5 -33 94 0 c112 0 104 -22 75 195 -11 83 -29 222 -41 310 -11 88 -23 170 -26 183 -5 21 -8 22 -144 22 -103 0 -141 -3 -144 -12z"/>
<path d="M9100 2555 l0 -355 155 0 155 0 0 75 0 75 -60 0 -60 0 0 65 0 65 58 0 57 0 -1 67 -2 68 -56 3 -57 3 3 72 3 72 60 0 60 0 3 73 3 72 -161 0 -160 0 0 -355z"/>
<path d="M4795 2648 c-3 -34 -10 -76 -15 -93 -5 -16 -11 -48 -14 -70 -7 -56 -48 -180 -80 -242 -14 -29 -58 -103 -97 -165 -139 -221 -186 -323 -209 -453 -11 -60 -10 -82 4 -150 15 -71 71 -205 87 -205 3 0 3 19 -2 43 -12 60 -11 207 2 269 21 108 101 276 207 437 51 78 127 230 148 298 33 101 22 341 -17 386 -4 5 -10 -20 -14 -55z"/>
<path d="M4666 2648 c-13 -51 -102 -185 -173 -259 -42 -44 -131 -121 -197 -171 -67 -51 -163 -134 -214 -185 -187 -188 -253 -345 -230 -546 22 -188 170 -335 384 -383 80 -17 274 -31 274 -19 0 5 -17 29 -38 54 -90 107 -166 242 -192 340 -15 56 -15 182 -1 245 17 72 56 143 172 316 122 182 168 266 204 375 28 85 46 255 28 255 -6 0 -13 -10 -17 -22z m-363 -610 c-60 -78 -99 -146 -130 -224 -24 -61 -27 -82 -27 -189 0 -107 3 -128 27 -189 32 -81 55 -120 115 -199 25 -31 43 -59 40 -62 -8 -8 -82 21 -129 51 -124 77 -192 208 -191 365 1 131 44 237 139 340 63 68 184 172 191 164 3 -2 -13 -28 -35 -57z"/>
<path d="M4500 2574 c-86 -76 -110 -92 -235 -159 -136 -73 -224 -133 -290 -201 -100 -103 -180 -257 -210 -407 -8 -40 -17 -82 -20 -94 -11 -46 12 -21 49 55 97 197 149 256 406 459 142 111 227 191 296 276 66 83 101 137 87 137 -5 0 -42 -30 -83 -66z"/>
<path d="M7440 2185 c0 -3 16 -30 36 -60 l37 -55 80 0 c45 0 77 4 72 8 -134 114 -131 112 -179 112 -25 0 -46 -2 -46 -5z"/>
<path d="M9180 2185 c0 -3 16 -30 36 -60 l37 -55 79 0 79 0 -70 60 c-63 54 -74 60 -115 60 -26 0 -46 -2 -46 -5z"/>
<path d="M3736 1400 c12 -195 68 -343 169 -446 72 -73 100 -89 200 -111 67 -14 85 -15 143 -3 111 21 189 69 242 145 17 25 30 45 28 45 -2 1 -73 2 -158 4 -164 3 -203 11 -305 63 -115 59 -221 171 -278 296 -50 110 -48 110 -41 7z"/>
<path d="M4430 810 c-8 -6 -46 -20 -85 -32 -118 -37 -280 -29 -409 21 -16 7 -31 10 -33 7 -5 -4 111 -92 147 -111 45 -23 152 -47 186 -41 76 15 189 91 228 154 9 15 -12 16 -34 2z"/>
<path d="M4550 715 c-19 -23 -112 -73 -177 -96 -37 -13 -98 -22 -171 -26 -110 -6 -112 -7 -80 -20 113 -49 223 -57 297 -21 56 27 116 86 136 134 17 41 15 53 -5 29z"/>
</g>
<g id="layer105" fill="#83725b" stroke="none">
<path d="M4880 2930 c0 -5 10 -33 23 -62 51 -114 71 -214 70 -348 -1 -196 -42 -318 -171 -515 -70 -106 -153 -260 -194 -359 -112 -269 -114 -416 -7 -524 l32 -33 -20 -22 c-60 -65 -73 -115 -51 -190 16 -54 82 -97 147 -97 46 0 81 13 65 23 -5 2 -28 8 -51 12 -45 7 -88 46 -99 90 -10 41 29 95 106 146 l24 16 -37 33 c-52 46 -84 105 -95 175 -9 63 -5 155 7 155 4 0 13 -24 21 -52 18 -71 73 -175 118 -221 35 -36 141 -97 168 -97 23 0 24 -17 3 -96 -28 -107 -81 -204 -149 -274 -58 -58 -162 -126 -232 -151 -49 -17 -48 -29 0 -29 195 0 384 123 468 305 20 42 38 74 41 71 10 -10 -37 -142 -72 -201 -20 -33 -58 -83 -86 -110 -27 -28 -49 -55 -49 -59 0 -11 501 7 558 20 13 2 75 11 139 19 64 8 181 27 259 42 l142 28 7 111 c4 60 5 281 2 490 -5 410 -10 454 -71 644 -127 390 -458 757 -912 1011 -57 32 -104 54 -104 49z m332 -388 c277 -238 458 -492 533 -748 46 -154 55 -265 55 -656 l0 -357 -39 -11 c-37 -10 -208 -38 -281 -46 -93 -10 -343 -24 -348 -19 -3 3 2 13 11 23 43 48 60 113 65 252 4 126 6 137 29 159 l24 25 6 -22 5 -22 37 26 c102 76 215 227 127 168 -28 -18 -46 -13 -29 8 141 175 203 255 239 309 63 94 58 123 -14 93 -52 -20 -106 -16 -110 9 -2 11 9 35 25 55 44 55 46 61 34 90 -13 31 -63 66 -107 76 -46 10 -111 -8 -169 -48 -28 -20 -64 -36 -79 -36 -36 0 -79 23 -100 54 -16 26 -16 26 14 26 20 0 34 7 45 23 27 41 57 48 181 41 l113 -7 12 26 c16 34 -8 99 -56 153 -31 35 -34 37 -35 17 0 -23 -5 -25 -75 -37 -49 -8 -158 -62 -186 -93 -39 -42 -51 -71 -52 -124 -1 -40 5 -56 29 -86 17 -21 48 -49 69 -63 l38 -25 -47 -5 c-42 -4 -54 -12 -115 -73 -38 -37 -84 -96 -102 -130 -31 -56 -34 -70 -34 -147 0 -73 4 -93 28 -138 15 -30 47 -77 72 -105 63 -73 59 -88 -10 -41 -46 31 -64 51 -115 127 -73 109 -89 285 -41 433 19 58 34 86 154 300 32 56 71 141 87 190 26 76 30 102 30 193 0 71 -7 130 -19 179 -11 39 -15 72 -10 72 5 0 55 -40 111 -88z m143 -1068 c-23 -39 -25 -49 -16 -76 14 -41 3 -48 -69 -47 -56 1 -126 16 -85 18 11 1 28 14 37 31 13 22 26 31 57 36 32 5 41 11 46 33 8 33 23 51 42 51 11 0 9 -11 -12 -46z"/>
<path d="M8258 2916 c-60 -22 -86 -43 -110 -89 -21 -39 -22 -55 -23 -252 0 -236 5 -271 42 -316 77 -91 271 -93 341 -4 39 49 44 89 40 326 -3 221 -3 226 -28 262 -13 20 -42 46 -63 58 -49 27 -147 35 -199 15z m102 -356 c0 -241 -4 -266 -35 -240 -12 10 -15 53 -15 239 0 229 4 256 36 244 11 -4 14 -50 14 -243z"/>
<path d="M420 2555 l0 -356 93 3 92 3 0 122 0 123 28 0 27 0 0 -125 0 -125 90 0 90 0 0 355 0 355 -90 0 -89 0 -3 -147 c-3 -148 -3 -148 -27 -148 l-23 0 1 148 2 147 -96 0 -95 0 0 -355z"/>
<path d="M1370 2903 c0 -9 56 -436 76 -577 8 -61 18 -114 20 -118 3 -4 63 -8 134 -8 l129 0 6 33 c5 34 26 177 51 346 8 57 21 145 29 195 24 147 31 136 -80 136 l-94 0 -3 -62 c-3 -63 -3 -63 -35 -66 -31 -3 -33 -2 -33 31 0 19 -3 49 -6 66 l-6 31 -94 0 c-52 0 -94 -3 -94 -7z m257 -282 c-4 -16 -9 -70 -13 -120 -4 -50 -10 -88 -14 -86 -4 2 -10 44 -14 92 -4 48 -10 100 -13 115 -5 26 -3 28 27 28 31 0 32 -2 27 -29z"/>
<path d="M6360 2555 l0 -356 93 3 92 3 0 113 c0 61 3 112 6 112 3 0 18 -46 34 -102 16 -57 33 -109 38 -115 6 -9 37 -13 88 -13 57 0 79 4 79 13 0 6 -22 79 -49 161 -38 113 -47 154 -41 175 29 90 100 340 100 350 0 7 -30 11 -94 11 l-93 0 -27 -112 c-14 -62 -26 -119 -26 -125 0 -7 -3 -13 -7 -13 -5 0 -6 56 -4 125 l3 125 -96 0 -96 0 0 -355z"/>
<path d="M6842 2558 l3 -353 99 -3 c124 -4 232 11 258 35 39 35 52 74 52 158 0 89 -13 122 -49 131 -30 7 -32 20 -5 29 45 14 55 50 59 207 l3 149 -86 -3 -86 -3 -3 -148 c-2 -119 -5 -150 -17 -157 -38 -24 -40 -15 -40 150 l0 160 -95 0 -96 0 3 -352z m244 -135 c9 -48 -5 -87 -34 -91 -21 -3 -22 0 -22 66 0 38 3 72 6 75 14 14 44 -15 50 -50z"/>
<path d="M4795 2643 c-4 -32 -10 -71 -15 -88 -5 -16 -11 -48 -14 -70 -7 -55 -48 -180 -79 -241 -14 -29 -63 -110 -107 -180 -98 -156 -163 -287 -187 -374 -33 -124 -16 -257 46 -370 l30 -55 -6 121 c-7 144 6 225 53 339 34 79 112 221 167 303 44 65 122 223 143 289 24 74 26 265 4 336 -8 26 -18 47 -21 47 -4 0 -10 -26 -14 -57z"/>
<path d="M4633 2578 c-39 -77 -65 -111 -153 -199 -58 -59 -141 -133 -185 -165 -231 -167 -374 -337 -427 -507 -22 -73 -26 -197 -7 -272 36 -144 152 -259 319 -315 49 -17 98 -24 200 -28 l135 -5 -37 44 c-134 157 -217 338 -217 474 0 119 35 205 163 393 191 283 251 419 259 585 2 48 2 87 1 87 -2 0 -25 -42 -51 -92z m-336 -549 c-96 -125 -146 -247 -154 -374 -9 -140 36 -271 139 -408 28 -38 48 -70 46 -72 -10 -10 -79 18 -136 54 -121 79 -184 200 -183 356 0 181 73 315 246 452 44 35 83 63 87 63 5 0 -16 -32 -45 -71z"/>
<path d="M4530 2597 c-95 -88 -127 -110 -271 -187 -168 -91 -259 -160 -329 -251 -89 -115 -133 -217 -178 -416 -14 -62 3 -53 37 20 72 153 198 306 338 409 186 138 316 258 398 369 81 110 82 129 5 56z"/>
<path d="M7440 2185 c0 -3 16 -30 36 -60 l37 -55 79 0 80 0 -72 60 c-64 53 -77 60 -116 60 -24 0 -44 -2 -44 -5z"/>
<path d="M4550 715 c-19 -23 -112 -73 -177 -96 -36 -12 -99 -22 -167 -26 -101 -6 -107 -7 -81 -20 90 -48 220 -57 294 -21 56 27 116 86 136 134 17 41 15 53 -5 29z"/>
</g>
<g id="layer106" fill="#9c9c9c" stroke="none">
<path d="M4880 2930 c0 -5 10 -33 23 -62 51 -114 71 -214 70 -348 -1 -197 -42 -319 -171 -515 -33 -49 -86 -142 -119 -205 -139 -270 -181 -431 -150 -567 9 -35 34 -76 68 -111 l32 -33 -20 -22 c-60 -65 -73 -115 -51 -190 16 -54 82 -97 147 -97 46 0 81 13 65 23 -5 2 -28 8 -51 12 -45 7 -88 46 -99 90 -10 41 29 95 106 146 l24 16 -37 33 c-52 46 -84 105 -95 175 -9 63 -5 155 7 155 4 0 13 -24 21 -52 18 -71 73 -175 118 -221 35 -36 141 -97 168 -97 23 0 24 -17 3 -96 -28 -107 -81 -204 -149 -274 -58 -58 -162 -126 -232 -151 -49 -17 -48 -29 0 -29 195 0 384 123 468 305 20 42 38 74 41 71 10 -10 -37 -142 -72 -201 -20 -33 -58 -83 -86 -110 -27 -28 -49 -55 -49 -59 0 -11 501 7 558 20 13 2 75 11 139 19 64 8 181 27 259 42 l142 28 7 111 c4 60 5 281 2 490 -5 410 -10 454 -71 644 -127 390 -458 757 -912 1011 -57 32 -104 54 -104 49z m332 -388 c279 -239 458 -491 534 -750 45 -152 54 -264 54 -654 l0 -357 -39 -11 c-37 -10 -208 -38 -281 -46 -93 -10 -343 -24 -348 -19 -3 3 2 13 11 22 42 47 59 115 65 253 4 126 6 137 29 159 l24 25 6 -22 5 -22 37 26 c102 76 215 227 127 168 -28 -18 -46 -13 -29 8 141 175 203 255 239 309 63 94 58 123 -14 93 -52 -20 -106 -16 -110 9 -2 11 9 35 25 55 44 55 46 61 34 90 -13 31 -63 66 -107 76 -46 10 -111 -8 -169 -48 -28 -20 -64 -36 -79 -36 -36 0 -79 23 -100 54 -16 26 -16 26 11 26 19 0 36 10 55 32 l27 33 130 -3 c122 -3 131 -2 141 17 6 11 8 33 4 48 -8 37 -47 103 -73 127 -21 19 -21 19 -21 -2 0 -22 -5 -24 -75 -36 -49 -8 -158 -62 -186 -93 -39 -42 -51 -71 -52 -124 -1 -40 5 -56 29 -86 17 -21 48 -49 69 -63 l38 -25 -47 -5 c-42 -4 -54 -12 -115 -73 -38 -37 -84 -96 -102 -130 -31 -56 -34 -70 -34 -147 0 -73 4 -93 28 -138 15 -30 47 -77 72 -105 63 -73 59 -88 -10 -41 -46 31 -64 51 -115 127 -73 109 -89 285 -41 433 19 58 34 86 154 300 32 56 71 141 87 190 26 76 30 102 30 193 0 71 -7 130 -19 179 -11 39 -15 72 -10 72 5 0 55 -40 111 -88z m143 -1068 c-23 -39 -25 -49 -16 -76 16 -44 4 -51 -76 -48 -47 2 -112 18 -78 19 11 1 28 14 37 31 13 22 26 31 57 36 32 5 41 11 46 33 8 33 23 51 42 51 11 0 9 -11 -12 -46z"/>
<path d="M5244 1395 c-19 -30 -9 -49 11 -21 14 19 45 16 45 -4 0 -5 5 -10 10 -10 18 0 11 39 -9 50 -29 15 -39 13 -57 -15z"/>
<path d="M2878 2916 c-56 -20 -85 -42 -105 -79 -15 -27 -18 -65 -21 -257 -2 -123 -1 -239 3 -257 14 -77 98 -132 200 -133 81 0 130 15 171 53 41 38 53 80 54 190 l0 78 -92 -3 -93 -3 -3 -93 c-2 -74 -6 -94 -19 -99 -37 -14 -43 21 -43 248 0 182 3 220 15 233 32 31 44 9 47 -82 l3 -87 93 -3 92 -3 0 68 c-1 95 -13 140 -51 179 -56 58 -167 80 -251 50z"/>
<path d="M8258 2916 c-59 -21 -86 -43 -110 -89 -21 -39 -22 -55 -23 -252 0 -115 4 -227 8 -247 10 -49 51 -96 102 -119 81 -37 218 -18 267 37 42 48 48 84 48 306 0 117 -5 229 -10 250 -13 45 -75 103 -127 117 -51 14 -110 13 -155 -3z m102 -356 c0 -241 -4 -266 -35 -240 -12 10 -15 53 -15 239 0 229 4 256 36 244 11 -4 14 -50 14 -243z"/>
<path d="M420 2555 l0 -356 93 3 92 3 0 122 0 123 28 0 27 0 0 -125 0 -125 90 0 90 0 0 355 0 355 -90 0 -89 0 -3 -147 -3 -148 -24 0 -24 0 2 148 2 147 -95 0 -96 0 0 -355z"/>
<path d="M922 2558 l3 -353 151 1 c173 2 202 11 234 74 29 57 29 186 -1 224 -11 14 -27 26 -35 26 -21 0 -17 18 6 25 40 13 50 54 50 210 l0 145 -85 0 -85 0 0 -144 c0 -118 -3 -147 -16 -160 -8 -9 -20 -16 -25 -16 -5 0 -9 68 -9 160 l0 160 -95 0 -95 0 2 -352z m222 -94 c10 -9 16 -33 16 -59 0 -56 -8 -75 -31 -75 -17 0 -19 8 -19 75 0 76 6 87 34 59z"/>
<path d="M1370 2903 c0 -9 53 -410 76 -573 8 -63 18 -118 20 -122 3 -5 63 -8 134 -8 l129 0 6 33 c5 34 26 177 51 346 8 57 21 145 29 195 24 147 31 136 -80 136 l-94 0 -3 -62 c-3 -63 -3 -63 -35 -66 -31 -3 -33 -2 -33 31 0 19 -3 49 -6 66 l-6 31 -94 0 c-52 0 -94 -3 -94 -7z m257 -282 c-4 -16 -9 -70 -13 -120 -4 -50 -10 -88 -14 -86 -4 2 -10 44 -14 92 -4 48 -10 100 -13 115 -5 26 -3 28 27 28 31 0 32 -2 27 -29z"/>
<path d="M1870 2553 l0 -356 154 6 c214 8 247 25 267 133 6 35 10 145 7 274 -4 302 -3 300 -268 300 l-160 0 0 -357z m223 224 c16 -11 17 -34 15 -226 -3 -211 -3 -214 -25 -222 l-23 -8 0 234 c0 129 4 235 8 235 5 0 16 -6 25 -13z"/>
<path d="M2372 2558 l3 -353 153 -3 152 -3 0 76 0 75 -60 0 -60 0 0 65 0 65 54 0 54 0 4 65 3 65 -57 0 -58 0 0 80 0 80 65 0 65 0 0 70 0 70 -160 0 -160 0 2 -352z"/>
<path d="M6360 2555 l0 -356 93 3 92 3 2 110 c1 61 2 115 3 120 1 6 16 -39 33 -100 18 -60 36 -116 40 -122 5 -9 35 -13 88 -13 56 0 79 4 79 13 0 6 -22 79 -49 161 -38 113 -47 154 -41 175 29 90 100 340 100 350 0 7 -30 11 -94 11 l-93 0 -27 -112 c-14 -62 -26 -119 -26 -125 0 -7 -3 -13 -7 -13 -5 0 -6 56 -4 125 l3 125 -96 0 -96 0 0 -355z"/>
<path d="M6843 2558 l2 -353 99 -3 c124 -4 232 11 258 35 39 35 52 74 52 158 0 89 -13 122 -49 131 -30 7 -32 20 -5 29 45 14 55 50 59 207 l3 149 -86 -3 -86 -3 -3 -148 c-2 -119 -5 -150 -17 -157 -38 -24 -40 -15 -40 150 l0 160 -95 0 -95 0 3 -352z m243 -135 c9 -48 -5 -87 -34 -91 -21 -3 -22 0 -22 66 0 38 3 72 6 75 14 14 44 -15 50 -50z"/>
<path d="M7294 2878 c6 -32 12 -78 56 -418 12 -91 25 -185 29 -210 l6 -45 132 -3 131 -3 6 28 c6 28 38 238 77 508 11 77 22 148 25 158 5 15 -4 17 -89 17 -107 0 -107 0 -107 -88 0 -43 0 -43 -32 -40 -33 3 -33 4 -38 63 l-5 60 -98 3 -98 3 5 -33z m252 -275 c-3 -27 -9 -84 -13 -128 l-7 -80 -12 75 c-6 41 -14 99 -18 128 l-7 52 32 0 31 0 -6 -47z"/>
<path d="M7792 2558 l3 -353 92 -3 93 -3 2 283 3 283 53 3 52 3 0 70 0 69 -150 0 -150 0 2 -352z"/>
<path d="M8686 2888 c-3 -13 -9 -54 -15 -93 -5 -38 -26 -177 -45 -308 -20 -131 -36 -249 -36 -263 l0 -25 92 3 92 3 7 30 c4 17 16 113 26 215 20 210 25 205 43 -51 6 -86 14 -166 17 -178 5 -20 12 -21 99 -21 83 0 94 2 94 18 0 9 -12 103 -25 207 -14 105 -32 242 -40 305 -8 63 -17 130 -20 148 l-6 32 -139 0 c-137 0 -140 0 -144 -22z"/>
<path d="M9102 2558 l3 -353 153 -3 152 -3 0 76 0 75 -60 0 -60 0 0 65 0 65 55 0 55 0 0 65 0 65 -55 0 -55 0 0 80 0 80 65 0 65 0 0 70 0 70 -160 0 -160 0 2 -352z"/>
<path d="M4635 2580 c-55 -105 -178 -243 -302 -336 -349 -262 -484 -451 -484 -679 -1 -177 67 -302 211 -390 95 -58 169 -77 320 -83 l135 -5 -37 44 c-134 157 -217 338 -217 474 0 119 35 205 163 393 191 284 252 423 258 590 2 45 2 82 1 82 -1 0 -23 -40 -48 -90z m-338 -551 c-96 -125 -146 -247 -154 -374 -9 -140 36 -271 139 -408 28 -38 48 -70 46 -72 -10 -10 -80 18 -136 55 -75 48 -144 138 -168 218 -10 35 -16 89 -16 142 2 177 76 312 247 447 44 35 83 63 87 63 5 0 -16 -32 -45 -71z"/>
<path d="M4530 2597 c-95 -88 -127 -110 -271 -187 -168 -91 -259 -160 -329 -251 -67 -87 -129 -211 -153 -309 -30 -123 -35 -150 -28 -150 4 0 21 26 36 58 81 163 201 309 340 412 33 25 62 47 65 50 3 3 34 28 69 55 88 66 207 186 265 265 82 111 84 130 6 57z"/>
<path d="M7451 2168 c7 -13 23 -40 37 -60 l25 -38 79 0 80 0 -72 60 c-64 54 -77 60 -116 60 -43 0 -44 -1 -33 -22z"/>
<path d="M9180 2185 c0 -3 16 -30 36 -60 l37 -55 80 0 80 0 -74 60 c-64 53 -79 60 -116 60 -24 0 -43 -2 -43 -5z"/>
<path d="M3730 1460 c-1 -123 52 -336 105 -420 85 -135 193 -198 345 -201 117 -3 201 33 283 120 26 27 47 54 47 59 0 6 -56 9 -127 9 -138 0 -212 14 -312 59 -134 62 -249 189 -316 351 -23 56 -24 57 -25 23z"/>
<path d="M4409 800 c-103 -53 -284 -61 -419 -20 -36 11 -69 20 -74 20 -18 0 92 -82 144 -107 77 -37 179 -43 243 -15 59 26 108 64 142 108 29 38 19 42 -36 14z"/>
<path d="M4525 695 c-78 -65 -207 -105 -333 -105 -46 0 -81 -4 -78 -9 3 -4 38 -18 77 -31 156 -49 294 4 364 140 19 36 10 38 -30 5z"/>
</g>
<g id="layer107" fill="#ae9c7b" stroke="none">
<path d="M4795 2638 c-19 -150 -52 -281 -96 -373 -12 -27 -62 -114 -111 -191 -166 -269 -208 -374 -208 -520 0 -76 24 -167 63 -241 l22 -42 0 162 c0 152 2 167 28 238 33 93 73 168 187 359 135 226 163 305 164 455 1 97 -17 205 -34 205 -4 0 -11 -24 -15 -52z"/>
<path d="M4510 684 c-83 -59 -189 -92 -310 -95 -44 -1 -80 -5 -80 -9 0 -14 136 -50 185 -50 91 1 168 43 226 123 45 62 38 73 -21 31z"/>
</g>
<g id="layer108" fill="#d5b876" stroke="none">
<path d="M4796 2618 c-9 -84 -44 -229 -71 -303 -26 -67 -63 -134 -152 -275 -137 -216 -186 -340 -189 -475 -2 -81 19 -165 58 -240 16 -29 16 -24 16 110 0 117 3 151 22 210 25 82 112 250 197 385 90 142 119 210 162 376 6 23 11 60 11 82 0 49 -30 192 -40 192 -4 0 -10 -28 -14 -62z"/>
<path d="M4540 703 c0 -12 -91 -60 -163 -87 -48 -19 -87 -25 -160 -27 -53 -2 -94 -6 -91 -11 10 -16 121 -41 181 -41 103 1 193 55 239 144 8 17 10 29 4 29 -5 0 -10 -3 -10 -7z"/>
</g>
<g id="layer109" fill="#bfbec1" stroke="none">
<path d="M4880 2921 c0 -6 4 -12 9 -15 5 -3 26 -59 47 -123 38 -115 39 -122 39 -263 0 -206 -27 -286 -177 -526 -106 -170 -182 -325 -229 -465 -39 -116 -41 -128 -37 -218 4 -101 22 -146 77 -195 28 -25 27 -34 -11 -74 -31 -31 -33 -37 -33 -107 0 -67 2 -76 28 -103 34 -35 97 -54 151 -45 40 6 32 23 -12 23 -36 0 -80 27 -97 60 -26 51 -19 79 33 129 26 25 56 51 67 58 l20 12 -20 12 c-60 37 -102 110 -115 197 -8 62 -2 162 10 162 5 0 14 -24 21 -52 19 -80 67 -175 116 -224 39 -41 149 -104 181 -104 9 0 10 -12 6 -42 -31 -200 -152 -363 -336 -451 -48 -23 -87 -45 -87 -48 -1 -9 109 1 169 16 80 20 146 60 221 135 59 60 129 172 129 208 0 7 5 12 10 12 16 0 0 -78 -31 -146 -30 -66 -83 -141 -136 -191 -18 -17 -33 -33 -33 -35 0 -2 51 -2 112 -1 321 4 659 40 895 94 l91 21 7 101 c8 118 1 828 -9 872 -3 17 -13 66 -22 110 -20 106 -56 208 -114 330 -162 337 -460 627 -883 859 -53 29 -57 30 -57 17z m307 -353 c288 -233 495 -526 567 -799 42 -163 44 -183 45 -594 l2 -402 -63 -11 c-239 -43 -608 -78 -608 -57 0 3 11 22 23 43 39 61 49 106 52 238 3 114 5 128 26 150 26 28 39 31 39 9 0 -8 3 -15 8 -15 25 0 192 168 192 194 0 4 -11 1 -25 -8 -60 -40 -59 -10 3 63 123 144 242 311 242 339 0 16 -22 13 -97 -9 -34 -10 -44 -10 -57 0 -24 20 -19 47 15 86 49 55 37 105 -33 141 -55 28 -187 6 -213 -36 -3 -5 -21 -17 -40 -26 -45 -21 -79 -12 -122 31 -40 40 -43 60 -8 51 21 -5 32 0 60 29 l34 36 128 -3 128 -3 3 36 c4 43 -27 115 -64 149 l-24 23 0 -21 c0 -16 -8 -23 -27 -27 -109 -22 -219 -76 -254 -125 -29 -40 -38 -101 -23 -146 13 -39 86 -113 112 -114 6 0 12 -4 12 -10 0 -5 -19 -10 -41 -10 -38 0 -47 -6 -119 -77 -102 -104 -135 -170 -135 -273 0 -90 25 -149 105 -247 41 -51 47 -63 32 -63 -28 0 -105 62 -144 117 -69 96 -83 143 -83 288 0 150 11 188 97 340 156 273 188 354 195 495 4 88 -1 133 -33 264 -8 35 -7 34 93 -46z m169 -1098 c-20 -36 -22 -47 -14 -73 16 -45 -5 -56 -95 -49 -72 5 -93 11 -69 19 8 3 27 20 44 39 19 21 41 34 62 36 22 2 32 9 34 23 5 27 44 67 54 57 5 -5 -2 -28 -16 -52z"/>
<path d="M5246 1398 c-8 -12 -13 -25 -10 -30 4 -5 12 0 20 11 16 22 44 18 44 -5 0 -8 5 -14 10 -14 18 0 10 29 -12 44 -29 21 -34 20 -52 -6z"/>
<path d="M2840 2897 c-78 -41 -85 -65 -88 -332 -3 -225 -3 -231 20 -275 18 -35 36 -51 78 -73 49 -25 63 -28 126 -24 50 3 84 11 114 28 65 35 81 71 87 189 l6 100 -92 0 -91 0 0 -84 c0 -46 -3 -91 -6 -100 -10 -25 -53 -20 -59 7 -3 12 -4 121 -3 241 3 199 5 220 21 230 31 19 47 -17 47 -106 l0 -78 91 0 92 0 -5 83 c-7 110 -25 149 -84 187 -43 27 -56 30 -129 30 -66 0 -90 -4 -125 -23z"/>
<path d="M8235 2906 c-38 -17 -80 -62 -94 -99 -7 -17 -11 -117 -11 -250 0 -194 3 -227 19 -262 22 -49 48 -73 98 -91 104 -37 235 1 277 81 20 37 21 56 21 275 0 263 -2 274 -72 327 -32 25 -46 28 -122 31 -57 1 -96 -2 -116 -12z m125 -122 c12 -31 13 -444 1 -462 -5 -8 -17 -12 -27 -10 -18 3 -19 17 -22 237 -2 228 1 261 29 261 5 0 14 -12 19 -26z"/>
<path d="M920 2559 l0 -351 164 4 165 3 30 29 c37 35 51 80 51 158 0 75 -13 107 -50 121 -31 12 -40 27 -16 27 8 0 26 14 40 31 25 30 26 34 26 180 l0 149 -85 0 -85 0 0 -148 c0 -148 -5 -172 -37 -172 -10 0 -13 35 -13 160 l0 160 -95 0 -95 0 0 -351z m228 -91 c7 -7 12 -38 12 -70 0 -46 -4 -59 -19 -68 -11 -5 -22 -10 -25 -10 -3 0 -6 36 -6 80 0 81 9 97 38 68z"/>
<path d="M1374 2883 c6 -26 37 -262 73 -545 l16 -128 133 0 132 0 6 38 c16 105 48 323 66 447 11 77 23 157 26 178 l6 37 -90 0 c-101 0 -102 0 -102 -87 0 -42 -1 -43 -34 -43 l-34 0 -7 65 -7 65 -95 0 -95 0 6 -27z m253 -275 c-4 -29 -9 -91 -13 -137 -4 -45 -10 -77 -14 -70 -8 15 -30 188 -30 233 0 22 4 26 31 26 l32 0 -6 -52z"/>
<path d="M1870 2559 l0 -351 163 4 c139 3 167 6 194 23 62 37 67 62 67 335 0 210 -2 249 -16 276 -28 52 -75 64 -253 64 l-155 0 0 -351z m228 219 c9 -9 12 -73 12 -225 0 -203 -1 -213 -20 -223 -25 -13 -39 -6 -35 18 2 9 4 113 4 230 1 217 4 235 39 200z"/>
<path d="M2378 2560 l-3 -350 153 0 152 0 0 70 0 70 -59 0 -59 0 -4 61 c-1 33 -1 63 1 65 2 2 28 4 58 4 l53 0 0 65 0 65 -55 0 -55 0 0 80 0 80 65 0 65 0 0 70 0 70 -155 0 -154 0 -3 -350z"/>
<path d="M6360 2560 l0 -350 90 0 90 0 0 122 c0 72 4 118 9 112 5 -5 23 -60 41 -121 l33 -113 85 0 c63 0 83 3 79 13 -2 6 -25 77 -51 156 l-47 144 56 187 c30 104 55 191 55 194 0 4 -42 5 -92 4 l-93 -3 -30 -127 c-16 -71 -33 -128 -37 -128 -5 0 -8 59 -8 130 l0 130 -90 0 -90 0 0 -350z"/>
<path d="M6850 2560 l0 -350 148 0 c120 0 153 3 182 18 50 24 73 77 73 166 0 84 -13 113 -56 131 l-31 13 30 15 c54 28 58 47 55 245 l-1 112 -80 0 -80 0 0 -134 c0 -147 -8 -186 -40 -186 -19 0 -20 6 -20 160 l0 160 -90 0 -90 0 0 -350z m224 -96 c10 -10 16 -33 16 -64 0 -39 -4 -52 -22 -64 -12 -9 -26 -16 -30 -16 -5 0 -8 36 -8 80 0 84 10 99 44 64z"/>
<path d="M7300 2885 c0 -23 36 -306 65 -513 8 -56 15 -116 15 -132 l0 -30 134 0 134 0 6 28 c3 15 13 74 21 132 8 58 26 182 40 275 14 94 29 191 32 218 l6 47 -91 0 -90 0 -7 -65 -7 -65 -33 0 -33 0 -7 65 -7 65 -89 0 c-88 0 -89 0 -89 -25z m245 -322 c-4 -54 -10 -116 -14 -138 l-8 -40 -6 35 c-7 37 -27 206 -27 228 0 7 13 12 31 12 l32 0 -8 -97z"/>
<path d="M8672 2773 c-26 -168 -68 -451 -78 -515 l-6 -48 95 0 94 0 7 58 c19 170 36 340 36 361 0 13 3 22 6 19 3 -3 12 -84 20 -179 7 -96 16 -193 20 -216 l5 -43 95 0 96 0 -6 38 c-3 20 -13 91 -21 157 -9 66 -25 183 -35 260 -10 77 -22 164 -25 193 l-7 52 -137 0 -138 0 -21 -137z"/>
<path d="M9100 2560 l0 -350 155 0 155 0 0 70 0 70 -60 0 -60 0 0 65 0 65 55 0 55 0 0 65 0 65 -55 0 -55 0 0 80 0 80 65 0 65 0 0 70 0 70 -160 0 -160 0 0 -350z"/>
<path d="M4643 2592 c-59 -123 -178 -255 -323 -362 -319 -234 -471 -449 -471 -667 0 -101 20 -173 70 -250 93 -144 270 -223 499 -223 l94 0 -42 47 c-68 78 -136 186 -171 275 -31 76 -33 92 -33 193 -1 103 2 115 33 189 19 43 50 101 69 130 249 363 298 465 309 644 3 50 4 92 2 91 -2 0 -19 -30 -36 -67z m-299 -503 c-4 -7 -29 -40 -55 -75 -126 -166 -172 -346 -131 -510 24 -94 76 -196 139 -274 42 -50 44 -55 24 -58 -11 -2 -50 11 -86 29 -78 38 -156 117 -190 191 -76 167 -40 385 86 532 75 86 247 219 213 165z"/>
<path d="M4485 2555 c-49 -41 -137 -100 -195 -131 -58 -31 -142 -81 -186 -110 -192 -126 -307 -320 -348 -584 -4 -27 5 -15 42 55 98 186 149 243 390 437 187 150 254 214 318 298 45 60 78 110 73 110 -2 -1 -44 -34 -94 -75z"/>
<path d="M7450 2183 c0 -4 14 -31 32 -60 l32 -53 73 0 c40 0 73 2 73 4 0 2 -31 29 -69 60 -55 45 -75 56 -105 56 -20 0 -36 -3 -36 -7z"/>
<path d="M9190 2180 c0 -6 15 -33 33 -60 l32 -50 73 0 c39 0 72 2 72 4 0 2 -31 29 -69 60 -55 45 -75 56 -105 56 -20 0 -36 -5 -36 -10z"/>
<path d="M3735 1405 c7 -79 19 -140 47 -237 45 -149 147 -265 273 -308 103 -35 252 -20 330 33 47 32 95 79 111 108 l13 27 -127 -1 c-300 -1 -475 104 -613 371 l-40 77 6 -70z"/>
<path d="M4400 794 c-120 -50 -271 -55 -415 -15 l-70 19 40 -34 c22 -19 68 -49 103 -66 53 -26 75 -31 140 -32 70 -1 83 2 140 33 53 29 133 105 121 115 -2 2 -29 -7 -59 -20z"/>
</g>
<g id="layer110" fill="#fcfcfc" stroke="none">
<path d="M4880 2927 c0 -2 9 -21 19 -43 89 -185 106 -417 45 -609 -24 -73 -87 -196 -146 -284 -73 -107 -188 -337 -229 -456 -31 -90 -34 -111 -34 -210 0 -102 2 -113 26 -150 15 -22 36 -49 48 -59 26 -24 27 -38 0 -62 -73 -66 -63 -206 18 -247 40 -20 86 -27 119 -18 28 7 27 8 -19 20 -77 19 -118 74 -103 137 7 28 78 100 108 110 17 5 15 11 -24 48 -53 50 -77 99 -88 174 -9 63 -2 162 11 162 4 0 13 -19 19 -42 6 -24 14 -52 17 -63 8 -30 52 -115 77 -149 26 -36 126 -102 178 -118 45 -13 45 -17 17 -118 -51 -187 -169 -319 -361 -408 -27 -12 -48 -23 -48 -25 0 -2 38 1 85 5 159 14 296 102 382 247 23 38 45 82 49 96 10 42 25 28 19 -17 -9 -66 -68 -176 -135 -256 l-60 -72 147 0 c267 1 621 38 849 91 l91 21 7 75 c3 42 6 230 6 418 0 440 -16 572 -93 785 -143 392 -454 724 -921 982 -67 37 -76 41 -76 35z m285 -341 c119 -96 238 -214 340 -337 133 -159 232 -369 274 -578 19 -94 21 -138 21 -502 l0 -398 -37 -6 c-21 -3 -56 -9 -78 -14 -38 -9 -107 -18 -311 -41 -137 -15 -244 -13 -244 4 0 8 5 18 11 22 6 3 22 31 36 62 21 47 24 73 27 184 3 119 5 131 26 153 27 28 40 32 40 10 0 -22 7 -19 64 26 49 39 107 103 128 143 10 18 9 18 -21 0 -47 -28 -57 -6 -18 37 18 20 44 51 59 70 15 19 48 60 73 91 65 81 135 188 135 205 0 17 -21 15 -97 -8 -34 -10 -44 -10 -57 0 -25 21 -19 52 15 87 51 53 36 109 -38 140 -71 30 -140 15 -232 -51 -39 -29 -61 -31 -101 -10 -29 15 -70 60 -70 77 0 6 11 7 25 4 21 -5 32 0 60 30 l35 36 115 -7 c85 -5 119 -4 130 5 32 26 10 105 -49 175 -24 28 -25 29 -26 8 0 -16 -8 -24 -27 -29 -197 -44 -283 -112 -285 -225 -1 -50 35 -105 90 -139 23 -14 42 -28 42 -32 0 -5 -18 -8 -39 -8 -33 0 -48 -8 -96 -52 -114 -104 -173 -223 -161 -325 9 -76 32 -125 99 -208 56 -70 64 -95 24 -73 -85 45 -163 142 -197 247 -20 62 -22 86 -18 184 6 127 22 178 105 321 82 141 133 243 161 318 23 64 26 88 26 198 0 90 -4 141 -17 182 -28 93 -27 93 58 24z m215 -1068 c0 -7 -11 -30 -24 -51 -20 -33 -22 -43 -13 -67 18 -48 -1 -59 -91 -53 -82 6 -109 16 -68 27 13 3 27 14 30 24 7 21 39 40 76 44 16 2 26 10 28 23 4 21 40 65 54 65 4 0 8 -6 8 -12z"/>
<path d="M5240 1390 c-13 -24 -3 -26 21 -4 19 17 39 11 39 -12 0 -8 5 -14 10 -14 14 0 13 23 -2 38 -19 19 -56 14 -68 -8z"/>
<path d="M2863 2909 c-17 -5 -45 -23 -62 -39 -44 -45 -53 -106 -49 -348 3 -237 9 -256 90 -302 36 -21 56 -25 123 -25 69 0 86 4 126 27 62 37 81 78 87 195 l5 93 -92 0 -91 0 0 -84 c0 -46 -3 -91 -6 -100 -10 -25 -53 -20 -59 7 -3 12 -4 121 -3 241 3 199 5 220 21 230 31 19 47 -17 47 -106 l0 -78 91 0 92 0 -6 84 c-8 108 -24 147 -78 183 -37 24 -53 28 -123 30 -45 1 -95 -2 -113 -8z"/>
<path d="M8235 2906 c-39 -18 -79 -63 -94 -105 -7 -21 -11 -115 -11 -250 0 -189 3 -221 19 -257 33 -72 113 -110 212 -101 75 7 130 38 160 91 22 38 24 54 27 231 6 279 -9 337 -98 383 -52 26 -165 30 -215 8z m123 -108 c14 -14 17 -454 3 -476 -5 -8 -17 -12 -27 -10 -18 3 -19 17 -22 238 -1 129 0 240 2 247 7 16 28 17 44 1z"/>
<path d="M420 2560 l0 -350 90 0 89 0 3 123 3 122 25 0 25 0 3 -122 3 -123 89 0 90 0 0 350 0 350 -90 0 -90 0 0 -150 0 -150 -30 0 -30 0 0 150 0 150 -90 0 -90 0 0 -350z"/>
<path d="M920 2560 l0 -350 148 0 c120 0 153 3 181 18 55 28 73 61 79 144 6 95 -12 143 -59 155 l-33 9 37 22 c21 12 42 33 47 47 6 15 10 89 10 166 l0 139 -85 0 -84 0 -3 -157 -3 -158 -27 -3 -28 -3 0 160 0 161 -90 0 -90 0 0 -350z m228 -92 c7 -7 12 -38 12 -70 0 -47 -4 -59 -20 -68 -11 -6 -25 -8 -30 -5 -11 7 -14 138 -3 148 10 11 28 8 41 -5z"/>
<path d="M1374 2888 c3 -13 12 -79 21 -148 9 -69 25 -188 35 -265 11 -77 22 -168 26 -202 l7 -63 133 0 c74 0 134 4 134 9 0 8 50 351 84 578 9 57 16 105 16 108 0 3 -40 5 -89 5 l-88 0 -7 -37 c-3 -21 -6 -50 -6 -65 0 -25 -4 -28 -34 -28 -31 0 -34 3 -40 38 -3 20 -6 49 -6 65 l0 27 -95 0 c-94 0 -95 0 -91 -22z m256 -240 c0 -41 -24 -267 -28 -263 -7 7 -31 183 -32 233 0 40 1 42 30 42 17 0 30 -5 30 -12z"/>
<path d="M1870 2560 l0 -352 163 4 c182 3 213 13 242 75 22 47 23 519 1 562 -25 47 -56 55 -238 59 l-168 4 0 -352z m228 218 c9 -9 12 -73 12 -225 0 -203 -1 -213 -20 -223 -11 -6 -25 -8 -30 -5 -6 4 -10 97 -10 236 0 214 1 229 18 229 10 0 23 -5 30 -12z"/>
<path d="M2380 2560 l0 -350 150 0 150 0 0 70 0 70 -65 0 -66 0 3 63 3 62 58 3 57 3 0 64 0 64 -57 3 -58 3 0 75 0 75 68 3 67 3 0 69 0 70 -155 0 -155 0 0 -350z"/>
<path d="M6360 2560 l0 -350 90 0 90 0 0 128 c0 78 4 121 9 112 5 -8 24 -66 42 -128 l32 -112 85 0 c63 0 83 3 80 13 -3 6 -27 77 -53 156 l-48 144 52 176 c29 97 55 184 58 194 4 16 -3 18 -88 15 l-94 -3 -31 -133 c-17 -73 -34 -136 -38 -139 -3 -4 -6 57 -6 135 l0 142 -90 0 -90 0 0 -350z"/>
<path d="M6850 2560 l0 -350 138 0 c163 0 203 9 234 53 19 26 24 48 27 120 3 97 -9 132 -54 143 -26 7 -35 24 -11 24 7 0 25 12 40 26 26 27 26 28 26 180 l0 154 -80 0 -80 0 0 -134 c0 -147 -8 -186 -40 -186 -19 0 -20 6 -20 160 l0 160 -90 0 -90 0 0 -350z m224 -96 c17 -16 22 -99 8 -120 -4 -6 -17 -14 -29 -18 -23 -7 -23 -6 -23 73 0 86 10 100 44 65z"/>
<path d="M7300 2890 c0 -11 11 -102 24 -202 14 -101 32 -241 41 -313 9 -71 19 -138 21 -147 5 -16 20 -18 134 -18 l128 0 6 33 c10 58 96 639 96 653 0 11 -20 14 -89 14 l-89 0 -7 -65 -7 -65 -33 0 -33 0 -7 65 -7 65 -89 0 c-82 0 -89 -2 -89 -20z m253 -255 c-14 -155 -26 -255 -30 -251 -4 4 -32 230 -33 264 0 9 11 12 33 10 25 -2 32 -7 30 -23z"/>
<path d="M7800 2560 l0 -350 90 0 90 0 0 280 0 280 55 0 55 0 0 70 0 70 -145 0 -145 0 0 -350z"/>
<path d="M8672 2768 c-12 -79 -35 -232 -52 -341 -16 -109 -30 -202 -30 -207 0 -6 41 -10 95 -10 86 0 95 2 95 19 0 10 7 78 15 152 8 74 17 169 20 212 4 43 9 77 11 74 2 -2 11 -82 19 -178 8 -96 17 -198 21 -226 l5 -53 95 0 95 0 -5 33 c-11 64 -86 637 -86 653 0 11 -27 14 -138 14 l-138 0 -22 -142z"/>
<path d="M9100 2560 l0 -350 155 0 156 0 -3 68 -3 67 -63 3 -63 3 3 62 3 62 58 3 57 3 0 64 0 64 -57 3 -58 3 0 75 0 75 68 3 67 3 0 69 0 70 -160 0 -160 0 0 -350z"/>
<path d="M4661 2621 c-55 -129 -190 -279 -383 -424 -140 -106 -288 -257 -346 -355 -156 -264 -85 -560 163 -684 80 -40 210 -68 320 -68 l97 0 -42 47 c-69 78 -136 186 -171 275 -45 113 -52 235 -19 335 27 82 34 94 173 302 60 91 127 201 148 246 50 105 81 226 77 302 l-3 58 -14 -34z m-321 -540 c-5 -11 -16 -25 -23 -33 -27 -27 -98 -139 -118 -185 -30 -70 -59 -187 -59 -237 0 -57 23 -159 51 -222 27 -61 99 -173 127 -198 50 -44 7 -49 -76 -9 -141 67 -229 201 -237 363 -8 144 42 273 149 388 97 104 216 189 186 133z"/>
<path d="M4510 2573 c-60 -52 -190 -143 -205 -143 -10 0 -167 -91 -220 -128 -76 -54 -122 -100 -179 -182 -77 -111 -131 -250 -150 -385 -4 -37 -2 -34 34 37 22 43 56 104 76 135 50 78 195 221 329 323 130 98 308 274 353 348 17 28 31 52 29 52 -1 0 -31 -26 -67 -57z"/>
<path d="M7450 2184 c0 -3 15 -30 32 -60 l33 -54 75 0 75 1 -35 30 c-79 68 -113 89 -147 89 -18 0 -33 -3 -33 -6z"/>
<path d="M9190 2183 c0 -4 14 -31 32 -60 l32 -53 73 0 c40 0 73 1 73 3 0 2 -31 29 -69 60 -56 46 -77 57 -105 57 -20 0 -36 -3 -36 -7z"/>
<path d="M3730 1453 c0 -39 38 -247 55 -293 33 -94 70 -152 137 -215 57 -54 79 -68 138 -86 164 -49 359 13 432 138 l17 30 -132 0 c-297 0 -473 107 -606 368 -25 49 -40 72 -41 58z"/>
<path d="M4385 788 c-60 -26 -85 -30 -180 -33 -112 -4 -150 1 -240 28 l-50 16 40 -34 c155 -133 334 -134 463 -4 23 24 42 47 42 51 0 4 -1 8 -2 7 -2 -1 -34 -15 -73 -31z"/>
</g>


</svg>